<?xml version="1.0" encoding="utf-8"?>
<!-- Generator: Adobe Illustrator 23.0.1, SVG Export Plug-In . SVG Version: 6.00 Build 0)  -->
<svg version="1.1" id="Social_Icons" xmlns="http://www.w3.org/2000/svg" xmlns:xlink="http://www.w3.org/1999/xlink" x="0px"
	 y="0px" viewBox="0 0 128 128" style="enable-background:new 0 0 128 128;" xml:space="preserve">
<style type="text/css">
	.st0{fill-rule:evenodd;clip-rule:evenodd;fill:#FFFFFF;}
</style>
<g id="_x31__stroke">
	<g id="Facebook_1_">
		<rect width="128" height="128"/>
		<path id="Facebook" class="st0" d="M68.4,128H7.1c-3.9,0-7.1-3.2-7.1-7.1V7.1C0,3.2,3.2,0,7.1,0h113.9c3.9,0,7.1,3.2,7.1,7.1
			v113.9c0,3.9-3.2,7.1-7.1,7.1H88.3V78.4H105l2.5-19.3H88.3V46.8c0-5.6,1.6-9.4,9.6-9.4l10.2,0V20.1c-1.8-0.2-7.8-0.8-14.9-0.8
			c-14.7,0-24.8,9-24.8,25.5v14.2H51.7v19.3h16.7V128z"/>
	</g>
</g>
</svg>
