<svg id="Layer_1" data-name="Layer 1" xmlns="http://www.w3.org/2000/svg" xmlns:xlink="http://www.w3.org/1999/xlink" viewBox="0 0 38.39 40"><defs><style>.cls-1{fill:#399;}.cls-2{fill:url(#linear-gradient);}.cls-3{fill:#f90;}.cls-4{fill:#660;}.cls-5{fill:#d7d2d9;}.cls-6{fill:none;}</style><linearGradient id="linear-gradient" x1="955.19" y1="520.49" x2="971.31" y2="527.32" gradientUnits="userSpaceOnUse"><stop offset="0" stop-color="#660"/><stop offset="0.38" stop-color="#517b3f"/><stop offset="0.8" stop-color="#3b9180"/><stop offset="1" stop-color="#399"/></linearGradient></defs><title>Guacamaya Travel</title><path class="cls-1" d="M970.91,523.79A9.1,9.1,0,0,1,955,520.45a20,20,0,0,0-11.37,7,11.15,11.15,0,0,1,18.15,2.07,16.1,16.1,0,0,1,14.71,20.54,20,20,0,0,0-5.55-26.3Z" transform="translate(-940.8 -520)"/><path class="cls-2" d="M963.78,527.24a9,9,0,0,0,7.13-3.45A19.93,19.93,0,0,0,959.2,520a20.3,20.3,0,0,0-4.23.45A9.1,9.1,0,0,0,963.78,527.24Z" transform="translate(-940.8 -520)"/><path class="cls-3" d="M961.75,529.55a11.15,11.15,0,0,1-6.3,15.9,9,9,0,0,1-3.53,3.54,9.17,9.17,0,0,1,8.58,11,20,20,0,0,0,16-9.87,16.1,16.1,0,0,0-14.71-20.54Z" transform="translate(-940.8 -520)"/><path d="M943.42,527.7l.18-.22a11.05,11.05,0,0,0-1.36,1.91c.13-.21.27-.43.42-.64A8.77,8.77,0,0,1,943.42,527.7Z" transform="translate(-940.8 -520)"/><path class="cls-4" d="M950.28,524.52a9,9,0,0,1,8.15,5.22,16.68,16.68,0,0,1,2.56-.2h.76a11.15,11.15,0,0,0-18.15-2.07l-.18.22A9,9,0,0,1,950.28,524.52Z" transform="translate(-940.8 -520)"/><path class="cls-5" d="M942.66,528.75c.24-.36.5-.71.76-1A8.77,8.77,0,0,0,942.66,528.75Z" transform="translate(-940.8 -520)"/><path class="cls-5" d="M958.43,529.74a9,9,0,0,0-15-2c-.26.34-.52.69-.76,1a9,9,0,0,0-1.35,4.46,9.13,9.13,0,0,1,9.1.29,9.13,9.13,0,0,1,4.33,7.77v0a9,9,0,0,0,3.69-11.55Z" transform="translate(-940.8 -520)"/><path class="cls-1" d="M951.92,549h-.4a8.47,8.47,0,0,0-1.13.07,9.07,9.07,0,0,0-3.23,1l-.44.25a10.12,10.12,0,0,0-.92.65,8.88,8.88,0,0,0-1.84,2,19.92,19.92,0,0,0,15.24,7c.43,0,.87,0,1.3,0a9.17,9.17,0,0,0-8.58-11Z" transform="translate(-940.8 -520)"/><circle cx="12.29" cy="8.45" r="1.21"/><path class="cls-4" d="M953.1,527.24a1.21,1.21,0,1,0,1.2,1.21,1.21,1.21,0,0,0-1.2-1.21Z" transform="translate(-940.8 -520)"/><path class="cls-6" d="M948.8,545.55h0Z" transform="translate(-940.8 -520)"/><path d="M945,543.59a11.16,11.16,0,0,0,3.3,1.81,11.78,11.78,0,0,1-3.71-2.16Z" transform="translate(-940.8 -520)"/><path d="M941.4,538.45a12.29,12.29,0,0,1-.52-2.26A11.26,11.26,0,0,0,941.4,538.45Z" transform="translate(-940.8 -520)"/><path d="M944.57,543.22h0Z" transform="translate(-940.8 -520)"/><path d="M944.61,543.24l0,0Z" transform="translate(-940.8 -520)"/><path d="M940.88,536.15v0c0-.15,0-.29,0-.44C940.85,535.87,940.86,536,940.88,536.15Z" transform="translate(-940.8 -520)"/><path d="M948.8,545.55l-.48-.15a5,5,0,0,0,.66.2l-.16,0Z" transform="translate(-940.8 -520)"/><path d="M941.4,538.45a10.65,10.65,0,0,0,3.17,4.76A11.08,11.08,0,0,1,941.4,538.45Z" transform="translate(-940.8 -520)"/><polygon points="13.93 21.3 13.93 21.3 13.93 21.3 13.93 21.3"/><path d="M950.41,533.5a9.07,9.07,0,0,0-2.58-1.09c-.24-2-1.39-3.8-4.23-4.93a7,7,0,0,0-1.1,1.5c-.09.14-.18.27-.26.41a11.27,11.27,0,0,0-1.35,4.05,13.36,13.36,0,0,0-.09,1.42c0,.18,0,.37,0,.55s0,.22,0,.34,0,.29,0,.44a12.29,12.29,0,0,0,.52,2.26,11.08,11.08,0,0,0,3.17,4.76h0l0,0a11.78,11.78,0,0,0,3.71,2.16l.48.15c-3.56-1.09-5.33-6.23-4-6.17a4.6,4.6,0,0,0,2.91-1.49,2.5,2.5,0,0,1,.37,1.74c-.18.93-3.28,0-3.28,0,3.59,4.33,9.89,1.68,9.91,1.67h0v0A9.13,9.13,0,0,0,950.41,533.5Z" transform="translate(-940.8 -520)"/><path d="M961.75,529.55H961a16.68,16.68,0,0,0-2.56.2,8.51,8.51,0,0,1,.34.83,6.57,6.57,0,0,1-7.56,0s2.71,3.39,7.8.88l.06.27a6.55,6.55,0,0,1-7.57-.54s2.47,3.56,7.71,1.42c0,.07,0,.15,0,.23a6.57,6.57,0,0,1-7.45-.91s2.27,3.58,7.47,1.8a9,9,0,0,1-2.79,6.33,9.14,9.14,0,0,1-1,5.44,11.15,11.15,0,0,0,6.3-15.9Z" transform="translate(-940.8 -520)"/></svg>